<svg width="24" height="24" viewBox="0 0 24 24" fill="none" xmlns="http://www.w3.org/2000/svg">
<path d="M9.44346 2.80469C9.44346 2.81758 9.21787 2.82617 8.81182 2.82617C8.41221 2.82617 8.17373 2.83477 8.16514 2.84766C8.15654 2.86055 8.04053 2.86914 7.88584 2.86914C7.73115 2.86914 7.61514 2.87773 7.60654 2.89062C7.6001 2.90137 7.52275 2.91211 7.43467 2.91211C7.34658 2.91211 7.26924 2.9207 7.26279 2.93359C7.25635 2.94434 7.19834 2.95508 7.13389 2.95508C7.06943 2.95508 7.01143 2.96367 7.00498 2.97656C6.99854 2.9873 6.94912 2.99805 6.89756 2.99805C6.846 2.99805 6.79658 3.00664 6.79014 3.01953C6.78369 3.03027 6.73857 3.04102 6.69131 3.04102C6.64619 3.04102 6.60752 3.04961 6.60752 3.0625C6.60752 3.07324 6.57959 3.08398 6.54521 3.08398C6.50869 3.08398 6.47432 3.09258 6.46787 3.10547C6.46143 3.11621 6.42061 3.12695 6.37979 3.12695C6.33896 3.12695 6.30674 3.13555 6.30674 3.14844C6.30674 3.15918 6.27881 3.16992 6.24229 3.16992C6.20791 3.16992 6.17783 3.17852 6.17783 3.19141C6.17783 3.20215 6.1542 3.21289 6.12627 3.21289C6.09619 3.21289 6.06611 3.22148 6.05967 3.23437C6.05322 3.24512 6.02744 3.25586 6.00381 3.25586C5.98232 3.25586 5.96299 3.26445 5.96299 3.27734C5.96299 3.28809 5.93506 3.29883 5.89854 3.29883C5.86416 3.29883 5.83408 3.30742 5.83408 3.32031C5.83408 3.33105 5.81475 3.3418 5.79111 3.3418C5.76748 3.3418 5.74814 3.35039 5.74814 3.36328C5.74814 3.37402 5.72881 3.38477 5.70518 3.38477C5.68154 3.38477 5.66221 3.39336 5.66221 3.40625C5.66221 3.41699 5.64932 3.42773 5.63213 3.42773C5.59561 3.42773 5.41729 3.51797 5.40869 3.53945C5.40439 3.55019 5.38291 3.55664 5.35928 3.55664C5.33779 3.55664 5.31846 3.56523 5.31846 3.57812C5.31846 3.58887 5.30342 3.59961 5.28623 3.59961C5.26689 3.59961 5.23252 3.61894 5.20674 3.64258C5.18096 3.66621 5.14658 3.68555 5.13154 3.68555C5.1165 3.68555 5.10361 3.69414 5.10361 3.70703C5.10361 3.71777 5.09072 3.72852 5.07783 3.72852C5.06279 3.72852 5.01553 3.75859 4.97471 3.79297C4.93389 3.82734 4.89307 3.85742 4.88232 3.85742C4.87373 3.85742 4.83721 3.88535 4.79854 3.92187C4.76201 3.95625 4.72334 3.98633 4.7126 3.98633C4.69111 3.98633 3.98643 4.68887 3.98643 4.7125C3.98643 4.72109 3.94775 4.77266 3.90049 4.82422C3.85322 4.87578 3.81455 4.92734 3.81455 4.93809C3.81455 4.94668 3.79521 4.97461 3.77158 5.00039C3.74795 5.02617 3.72861 5.06055 3.72861 5.07559C3.72861 5.09062 3.72002 5.10352 3.70713 5.10352C3.69639 5.10352 3.68564 5.11641 3.68564 5.13144C3.68564 5.14648 3.66631 5.18086 3.64268 5.20664C3.61904 5.23242 3.59971 5.2668 3.59971 5.28613C3.59971 5.30332 3.59111 5.31836 3.57822 5.31836C3.56748 5.31836 3.55674 5.33769 3.55674 5.36133C3.55674 5.38496 3.54814 5.4043 3.5374 5.4043C3.52666 5.4043 3.51377 5.42148 3.50732 5.44082C3.50088 5.4623 3.47939 5.50742 3.45791 5.54394C3.3999 5.64707 3.38486 5.68144 3.38486 5.71582C3.38486 5.73301 3.37627 5.74805 3.36338 5.74805C3.35264 5.74805 3.34189 5.76738 3.34189 5.79102C3.34189 5.81465 3.3333 5.83398 3.32041 5.83398C3.30967 5.83398 3.29893 5.86191 3.29893 5.89844C3.29893 5.93281 3.29033 5.96289 3.27744 5.96289C3.2667 5.96289 3.25596 5.98223 3.25596 6.00371C3.25596 6.02734 3.24736 6.05312 3.23447 6.05957C3.22373 6.06602 3.21299 6.09609 3.21299 6.12617C3.21299 6.1541 3.20439 6.17773 3.1915 6.17773C3.18076 6.17773 3.17002 6.20566 3.17002 6.24219C3.17002 6.27656 3.16143 6.30664 3.14854 6.30664C3.13779 6.30664 3.12705 6.33887 3.12705 6.37969C3.12705 6.42051 3.11846 6.46133 3.10557 6.46777C3.09482 6.47422 3.08408 6.50859 3.08408 6.54512C3.08408 6.57949 3.07549 6.60742 3.0626 6.60742C3.05186 6.60742 3.04111 6.64609 3.04111 6.69121C3.04111 6.73848 3.03252 6.78359 3.01963 6.79004C3.00889 6.79648 2.99814 6.8459 2.99814 6.89746C2.99814 6.94902 2.98955 6.99844 2.97666 7.00488C2.96592 7.01133 2.95518 7.06934 2.95518 7.13379C2.95518 7.19824 2.94658 7.25625 2.93369 7.2627C2.92295 7.26914 2.91221 7.34648 2.91221 7.43457C2.91221 7.52266 2.90146 7.6 2.89072 7.60645C2.87783 7.61504 2.86924 7.73105 2.86924 7.88574C2.86924 8.04043 2.86064 8.15645 2.84775 8.16504C2.83486 8.17363 2.82627 8.40137 2.82627 8.77734C2.82627 9.15332 2.81768 9.38105 2.80479 9.38965C2.77471 9.40898 2.77471 14.591 2.80479 14.6104C2.81768 14.6189 2.82627 14.8467 2.82627 15.2227C2.82627 15.5986 2.83486 15.8264 2.84775 15.835C2.86064 15.8436 2.86924 15.9596 2.86924 16.1143C2.86924 16.2689 2.87783 16.385 2.89072 16.3936C2.90361 16.4 2.91221 16.4773 2.91221 16.5654C2.91221 16.6535 2.92295 16.7309 2.93369 16.7373C2.94658 16.7437 2.95518 16.8018 2.95518 16.8662C2.95518 16.9307 2.96592 16.9887 2.97666 16.9951C2.98955 17.0016 2.99814 17.0467 2.99814 17.0918C2.99814 17.1369 3.00889 17.182 3.01963 17.1885C3.03252 17.1949 3.04111 17.2443 3.04111 17.298C3.04111 17.3496 3.05186 17.3926 3.0626 17.3926C3.07549 17.3926 3.08408 17.4205 3.08408 17.4549C3.08408 17.4914 3.09268 17.5258 3.10557 17.5322C3.11631 17.5387 3.12705 17.5795 3.12705 17.6203C3.12705 17.6611 3.13779 17.6934 3.14854 17.6934C3.16143 17.6934 3.17002 17.7213 3.17002 17.7578C3.17002 17.7922 3.18076 17.8223 3.1915 17.8223C3.20439 17.8223 3.21299 17.8459 3.21299 17.8738C3.21299 17.9039 3.22158 17.934 3.23447 17.9404C3.24521 17.9469 3.25596 17.9727 3.25596 17.9963C3.25596 18.0178 3.2667 18.0371 3.27744 18.0371C3.29033 18.0371 3.29893 18.065 3.29893 18.1016C3.29893 18.1359 3.30967 18.166 3.32041 18.166C3.3333 18.166 3.34189 18.1854 3.34189 18.209C3.34189 18.2326 3.35264 18.252 3.36338 18.252C3.37627 18.252 3.38486 18.267 3.38486 18.2842C3.38486 18.3186 3.3999 18.3529 3.45791 18.4561C3.47939 18.4904 3.50088 18.5377 3.50732 18.557C3.51377 18.5785 3.52666 18.5957 3.5374 18.5957C3.54814 18.5957 3.55674 18.615 3.55674 18.6387C3.55674 18.6623 3.56748 18.6816 3.57822 18.6816C3.59111 18.6816 3.59971 18.6967 3.59971 18.7139C3.59971 18.7332 3.61904 18.7676 3.64268 18.7934C3.66631 18.8191 3.68564 18.8535 3.68564 18.8686C3.68564 18.8836 3.69639 18.8965 3.70713 18.8965C3.72002 18.8965 3.72861 18.9094 3.72861 18.9244C3.72861 18.9395 3.74795 18.9738 3.77158 18.9996C3.79521 19.0254 3.81455 19.0533 3.81455 19.0619C3.81455 19.0727 3.85322 19.1242 3.90049 19.1758C3.94775 19.2273 3.98643 19.2789 3.98643 19.2875C3.98643 19.3111 4.69111 20.0137 4.7126 20.0137C4.72334 20.0137 4.76201 20.0416 4.79854 20.0781C4.83721 20.1125 4.87373 20.1426 4.88232 20.1426C4.89307 20.1426 4.93389 20.1727 4.97471 20.207C5.01553 20.2414 5.06279 20.2715 5.07783 20.2715C5.09072 20.2715 5.10361 20.2801 5.10361 20.293C5.10361 20.3037 5.1165 20.3145 5.13154 20.3145C5.14658 20.3145 5.18096 20.3338 5.20674 20.3574C5.23252 20.3811 5.26689 20.4004 5.28623 20.4004C5.30342 20.4004 5.31846 20.409 5.31846 20.4219C5.31846 20.4326 5.33779 20.4434 5.35928 20.4434C5.38291 20.4434 5.40439 20.4498 5.40869 20.4605C5.41729 20.482 5.59561 20.5723 5.63213 20.5723C5.64932 20.5723 5.66221 20.5809 5.66221 20.5937C5.66221 20.6045 5.68154 20.6152 5.70518 20.6152C5.72881 20.6152 5.74814 20.6238 5.74814 20.6367C5.74814 20.6475 5.76748 20.6582 5.79111 20.6582C5.81475 20.6582 5.83408 20.6668 5.83408 20.6797C5.83408 20.6904 5.86416 20.7012 5.89854 20.7012C5.93506 20.7012 5.96299 20.7098 5.96299 20.7227C5.96299 20.7334 5.98232 20.7441 6.00381 20.7441C6.02744 20.7441 6.05322 20.7527 6.05967 20.7656C6.06611 20.7764 6.09619 20.7871 6.12627 20.7871C6.1542 20.7871 6.17783 20.7957 6.17783 20.8086C6.17783 20.8193 6.20791 20.8301 6.24229 20.8301C6.27881 20.8301 6.30674 20.8387 6.30674 20.8516C6.30674 20.8623 6.34541 20.873 6.39268 20.873C6.43994 20.873 6.47861 20.8816 6.47861 20.8945C6.47861 20.9053 6.50869 20.916 6.54307 20.916C6.57959 20.916 6.60752 20.9246 6.60752 20.9375C6.60752 20.9482 6.65049 20.959 6.70205 20.959C6.75576 20.959 6.80518 20.9676 6.81162 20.9805C6.81807 20.9912 6.86318 21.002 6.9083 21.002C6.95342 21.002 6.99854 21.0105 7.00498 21.0234C7.01143 21.0342 7.06943 21.0449 7.13389 21.0449C7.19834 21.0449 7.25635 21.0557 7.26279 21.0664C7.26924 21.0793 7.34658 21.0879 7.43467 21.0879C7.52275 21.0879 7.6001 21.0965 7.60654 21.1094C7.61514 21.1223 7.73115 21.1309 7.88584 21.1309C8.04053 21.1309 8.15654 21.1395 8.16514 21.1523C8.17373 21.1652 8.41221 21.1738 8.81182 21.1738C9.21787 21.1738 9.44346 21.1824 9.44346 21.1953C9.44346 21.2104 10.3093 21.2168 12.0001 21.2168C13.6909 21.2168 14.5567 21.2104 14.5567 21.1953C14.5567 21.1824 14.7823 21.1738 15.1884 21.1738C15.588 21.1738 15.8265 21.1652 15.8351 21.1523C15.8437 21.1395 15.9597 21.1309 16.1144 21.1309C16.269 21.1309 16.3851 21.1223 16.3937 21.1094C16.4001 21.0965 16.4774 21.0879 16.5655 21.0879C16.6536 21.0879 16.731 21.0771 16.7374 21.0664C16.7438 21.0535 16.8019 21.0449 16.8663 21.0449C16.9308 21.0449 16.9888 21.0342 16.9952 21.0234C17.0017 21.0105 17.0468 21.002 17.0919 21.002C17.137 21.002 17.1821 20.9934 17.1886 20.9805C17.195 20.9697 17.2444 20.959 17.2981 20.959C17.3497 20.959 17.3927 20.9482 17.3927 20.9375C17.3927 20.9246 17.4206 20.916 17.455 20.916C17.4915 20.916 17.5259 20.9053 17.5323 20.8945C17.5388 20.8816 17.5796 20.873 17.6204 20.873C17.6612 20.873 17.6935 20.8623 17.6935 20.8516C17.6935 20.8387 17.7235 20.8301 17.7579 20.8301C17.7944 20.8301 17.8224 20.8193 17.8224 20.8086C17.8224 20.7957 17.846 20.7871 17.8739 20.7871C17.904 20.7871 17.9341 20.7764 17.9405 20.7656C17.947 20.7527 17.9728 20.7441 17.9964 20.7441C18.0179 20.7441 18.0372 20.7334 18.0372 20.7227C18.0372 20.7098 18.0673 20.7012 18.1017 20.7012C18.1382 20.7012 18.1661 20.6904 18.1661 20.6797C18.1661 20.6668 18.1854 20.6582 18.2091 20.6582C18.2327 20.6582 18.2521 20.6475 18.2521 20.6367C18.2521 20.6238 18.2671 20.6152 18.2843 20.6152C18.3187 20.6152 18.353 20.6002 18.4562 20.5422C18.4927 20.5207 18.5378 20.4992 18.5593 20.4928C18.5786 20.4863 18.5958 20.4734 18.5958 20.4627C18.5958 20.452 18.6151 20.4434 18.6388 20.4434C18.6624 20.4434 18.6817 20.4326 18.6817 20.4219C18.6817 20.409 18.7011 20.4004 18.7247 20.4004C18.7483 20.4004 18.7677 20.3896 18.7677 20.3789C18.7677 20.366 18.7806 20.3574 18.7956 20.3574C18.8106 20.3574 18.8429 20.3402 18.8665 20.3209C18.888 20.2994 18.9331 20.2693 18.9675 20.2521C18.9997 20.235 19.0255 20.2135 19.0255 20.2027C19.0255 20.1941 19.0384 20.1855 19.0534 20.1855C19.0685 20.1855 19.1243 20.1469 19.1759 20.0996C19.2274 20.0523 19.279 20.0137 19.2876 20.0137C19.3112 20.0137 20.0138 19.309 20.0138 19.2875C20.0138 19.2768 20.0438 19.2381 20.0782 19.2016C20.1147 19.1629 20.1427 19.1264 20.1427 19.1178C20.1427 19.107 20.1728 19.0662 20.2071 19.0254C20.2415 18.9846 20.2716 18.9373 20.2716 18.9223C20.2716 18.9094 20.2823 18.8965 20.2931 18.8965C20.306 18.8965 20.3146 18.8836 20.3146 18.8686C20.3146 18.8535 20.3339 18.8191 20.3575 18.7934C20.3812 18.7676 20.4005 18.7332 20.4005 18.7139C20.4005 18.6967 20.4112 18.6816 20.422 18.6816C20.4349 18.6816 20.4435 18.6623 20.4435 18.6387C20.4435 18.615 20.4542 18.5957 20.4649 18.5957C20.4778 18.5957 20.4864 18.5828 20.4864 18.5678C20.4864 18.5549 20.5058 18.5184 20.5294 18.4883C20.553 18.4582 20.5724 18.4131 20.5724 18.3852C20.5724 18.3594 20.5831 18.3379 20.5938 18.3379C20.6067 18.3379 20.6153 18.3186 20.6153 18.2949C20.6153 18.2713 20.6261 18.252 20.6368 18.252C20.6497 18.252 20.6583 18.2326 20.6583 18.209C20.6583 18.1854 20.669 18.166 20.6798 18.166C20.6927 18.166 20.7013 18.1359 20.7013 18.1016C20.7013 18.065 20.712 18.0371 20.7228 18.0371C20.7356 18.0371 20.7442 18.0178 20.7442 17.9963C20.7442 17.9727 20.755 17.9469 20.7657 17.9404C20.7786 17.934 20.7872 17.9039 20.7872 17.8738C20.7872 17.8459 20.7979 17.8223 20.8087 17.8223C20.8216 17.8223 20.8302 17.7922 20.8302 17.7578C20.8302 17.7213 20.8409 17.6934 20.8517 17.6934C20.8646 17.6934 20.8731 17.6611 20.8731 17.6203C20.8731 17.5795 20.8839 17.5387 20.8946 17.5322C20.9075 17.5258 20.9161 17.4914 20.9161 17.4549C20.9161 17.4205 20.9269 17.3926 20.9376 17.3926C20.9505 17.3926 20.9591 17.3496 20.9591 17.298C20.9591 17.2443 20.9698 17.1949 20.9806 17.1885C20.9935 17.182 21.0021 17.1369 21.0021 17.0918C21.0021 17.0467 21.0128 17.0016 21.0235 16.9951C21.0364 16.9887 21.045 16.9307 21.045 16.8662C21.045 16.8018 21.0558 16.7437 21.0665 16.7373C21.0794 16.7309 21.088 16.6535 21.088 16.5654C21.088 16.4773 21.0987 16.4 21.1095 16.3936C21.1224 16.385 21.131 16.2689 21.131 16.1143C21.131 15.9596 21.1396 15.8436 21.1524 15.835C21.1653 15.8264 21.1739 15.5943 21.1739 15.2119C21.1739 14.8295 21.1825 14.5975 21.1954 14.5889C21.2104 14.5803 21.2169 13.693 21.2169 12C21.2169 10.307 21.2104 9.41973 21.1954 9.41113C21.1825 9.40254 21.1739 9.17051 21.1739 8.78809C21.1739 8.40566 21.1653 8.17363 21.1524 8.16504C21.1396 8.15645 21.131 8.04043 21.131 7.88574C21.131 7.73105 21.1224 7.61504 21.1095 7.60645C21.0987 7.6 21.088 7.52266 21.088 7.43457C21.088 7.34648 21.0794 7.26914 21.0665 7.2627C21.0558 7.25625 21.045 7.19824 21.045 7.13379C21.045 7.06934 21.0364 7.01133 21.0235 7.00488C21.0128 6.99844 21.0021 6.94902 21.0021 6.89746C21.0021 6.8459 20.9935 6.79648 20.9806 6.79004C20.9698 6.78359 20.9591 6.73848 20.9591 6.69121C20.9591 6.64609 20.9505 6.60742 20.9376 6.60742C20.9269 6.60742 20.9161 6.57949 20.9161 6.54512C20.9161 6.50859 20.9075 6.47422 20.8946 6.46777C20.8839 6.46133 20.8731 6.42051 20.8731 6.37969C20.8731 6.33887 20.8646 6.30664 20.8517 6.30664C20.8409 6.30664 20.8302 6.27656 20.8302 6.24219C20.8302 6.20566 20.8216 6.17773 20.8087 6.17773C20.7979 6.17773 20.7872 6.1541 20.7872 6.12617C20.7872 6.09609 20.7786 6.06602 20.7657 6.05957C20.755 6.05312 20.7442 6.02734 20.7442 6.00371C20.7442 5.98223 20.7356 5.96289 20.7228 5.96289C20.712 5.96289 20.7013 5.93281 20.7013 5.89844C20.7013 5.86191 20.6927 5.83398 20.6798 5.83398C20.669 5.83398 20.6583 5.81465 20.6583 5.79102C20.6583 5.76738 20.6497 5.74805 20.6368 5.74805C20.6261 5.74805 20.6153 5.72871 20.6153 5.70508C20.6153 5.68144 20.6067 5.66211 20.5938 5.66211C20.5831 5.66211 20.5724 5.64062 20.5724 5.61269C20.5724 5.58691 20.553 5.5418 20.5294 5.51172C20.5058 5.48164 20.4864 5.44512 20.4864 5.43008C20.4864 5.41719 20.4778 5.4043 20.4649 5.4043C20.4542 5.4043 20.4435 5.38496 20.4435 5.36133C20.4435 5.33769 20.4349 5.31836 20.422 5.31836C20.4112 5.31836 20.4005 5.29902 20.4005 5.27539C20.4005 5.25176 20.3919 5.23242 20.379 5.23242C20.3683 5.23242 20.3575 5.21953 20.3575 5.20449C20.3575 5.18945 20.3403 5.15723 20.321 5.13359C20.2995 5.11211 20.2694 5.06699 20.2522 5.03262C20.2351 5.00039 20.2136 4.97461 20.2028 4.97461C20.1942 4.97461 20.1856 4.96172 20.1856 4.94668C20.1856 4.93164 20.147 4.87578 20.0997 4.82422C20.0524 4.77266 20.0138 4.72109 20.0138 4.7125C20.0138 4.68887 19.3112 3.98633 19.2876 3.98633C19.279 3.98633 19.2274 3.94766 19.1759 3.90039C19.1243 3.85312 19.0685 3.81445 19.0534 3.81445C19.0384 3.81445 19.0255 3.80586 19.0255 3.79727C19.0255 3.78652 18.9997 3.76504 18.9675 3.74785C18.9331 3.73066 18.888 3.70059 18.8665 3.6791C18.8429 3.65977 18.8106 3.64258 18.7956 3.64258C18.7806 3.64258 18.7677 3.63184 18.7677 3.62109C18.7677 3.6082 18.7483 3.59961 18.7247 3.59961C18.7011 3.59961 18.6817 3.58887 18.6817 3.57812C18.6817 3.56523 18.6624 3.55664 18.6388 3.55664C18.6151 3.55664 18.5958 3.54805 18.5958 3.5373C18.5958 3.52656 18.5786 3.51367 18.5593 3.50723C18.5378 3.50078 18.4927 3.4793 18.4562 3.45781C18.353 3.3998 18.3187 3.38477 18.2843 3.38477C18.2671 3.38477 18.2521 3.37402 18.2521 3.36328C18.2521 3.35039 18.2327 3.3418 18.2091 3.3418C18.1854 3.3418 18.1661 3.33105 18.1661 3.32031C18.1661 3.30742 18.1382 3.29883 18.1017 3.29883C18.0673 3.29883 18.0372 3.28809 18.0372 3.27734C18.0372 3.26445 18.0179 3.25586 17.9942 3.25586C17.9706 3.25586 17.9513 3.24512 17.9513 3.23437C17.9513 3.22148 17.9233 3.21289 17.8868 3.21289C17.8524 3.21289 17.8224 3.20215 17.8224 3.19141C17.8224 3.17852 17.7944 3.16992 17.7579 3.16992C17.7235 3.16992 17.6935 3.15918 17.6935 3.14844C17.6935 3.13555 17.6612 3.12695 17.6204 3.12695C17.5796 3.12695 17.5388 3.11621 17.5323 3.10547C17.5259 3.09258 17.4915 3.08398 17.455 3.08398C17.4206 3.08398 17.3927 3.07324 17.3927 3.0625C17.3927 3.04961 17.354 3.04102 17.3089 3.04102C17.2616 3.04102 17.2165 3.03027 17.2101 3.01953C17.2036 3.00664 17.1542 2.99805 17.1026 2.99805C17.0511 2.99805 17.0017 2.9873 16.9952 2.97656C16.9888 2.96367 16.9308 2.95508 16.8663 2.95508C16.8019 2.95508 16.7438 2.94434 16.7374 2.93359C16.731 2.9207 16.6536 2.91211 16.5655 2.91211C16.4774 2.91211 16.4001 2.90137 16.3937 2.89062C16.3851 2.87773 16.269 2.86914 16.1144 2.86914C15.9597 2.86914 15.8437 2.86055 15.8351 2.84766C15.8265 2.83477 15.588 2.82617 15.1884 2.82617C14.7823 2.82617 14.5567 2.81758 14.5567 2.80469C14.5567 2.78965 13.6909 2.7832 12.0001 2.7832C10.3093 2.7832 9.44346 2.78965 9.44346 2.80469ZM15.3409 4.56641C15.3495 4.5793 15.4956 4.58789 15.7062 4.58789C15.9167 4.58789 16.0628 4.59648 16.0714 4.60937C16.0778 4.62012 16.1616 4.63086 16.254 4.63086C16.3464 4.63086 16.4302 4.63945 16.4366 4.65234C16.4431 4.66309 16.4968 4.67383 16.5548 4.67383C16.6128 4.67383 16.6665 4.68242 16.6729 4.69531C16.6794 4.70605 16.7288 4.7168 16.7825 4.7168C16.8341 4.7168 16.8771 4.72539 16.8771 4.73828C16.8771 4.74902 16.9093 4.75977 16.9501 4.75977C16.9909 4.75977 17.0317 4.76836 17.0382 4.78125C17.0446 4.79199 17.079 4.80273 17.1155 4.80273C17.1499 4.80273 17.1778 4.81133 17.1778 4.82422C17.1778 4.83496 17.1972 4.8457 17.2208 4.8457C17.2444 4.8457 17.2831 4.8543 17.3067 4.86719C17.3304 4.87793 17.369 4.89727 17.3927 4.91016C17.4163 4.9209 17.455 4.93164 17.4786 4.93164C17.5022 4.93164 17.5216 4.94023 17.5216 4.95312C17.5216 4.96387 17.5409 4.97461 17.5646 4.97461C17.5882 4.97461 17.6075 4.9832 17.6075 4.99609C17.6075 5.00684 17.6269 5.01758 17.6505 5.01758C17.6741 5.01758 17.6935 5.02617 17.6935 5.03906C17.6935 5.0498 17.7128 5.06055 17.7364 5.06055C17.7601 5.06055 17.7794 5.06914 17.7794 5.08203C17.7794 5.09277 17.7923 5.10352 17.8073 5.10352C17.8224 5.10352 17.8567 5.12285 17.8825 5.14648C17.9083 5.17012 17.9384 5.18945 17.9513 5.18945C17.962 5.18945 18.0028 5.21738 18.0415 5.25391C18.078 5.28828 18.1167 5.31836 18.1274 5.31836C18.1511 5.31836 18.6817 5.84902 18.6817 5.87266C18.6817 5.8834 18.7118 5.92207 18.7462 5.95859C18.7827 5.99727 18.8106 6.03809 18.8106 6.04883C18.8106 6.06172 18.83 6.0918 18.8536 6.11758C18.8772 6.14336 18.8966 6.17773 18.8966 6.19277C18.8966 6.20781 18.9073 6.2207 18.9181 6.2207C18.931 6.2207 18.9396 6.24004 18.9396 6.26367C18.9396 6.2873 18.9503 6.30664 18.961 6.30664C18.9739 6.30664 18.9825 6.32598 18.9825 6.34961C18.9825 6.37324 18.9933 6.39258 19.004 6.39258C19.0169 6.39258 19.0255 6.41191 19.0255 6.43555C19.0255 6.45918 19.0362 6.47852 19.047 6.47852C19.0599 6.47852 19.0685 6.50644 19.0685 6.54297C19.0685 6.57734 19.0792 6.60742 19.0899 6.60742C19.1028 6.60742 19.1114 6.62676 19.1114 6.64824C19.1114 6.67187 19.1222 6.69766 19.1329 6.7041C19.1458 6.71055 19.1544 6.74062 19.1544 6.7707C19.1544 6.79863 19.1651 6.82227 19.1759 6.82227C19.1888 6.82227 19.1974 6.8502 19.1974 6.88457C19.1974 6.92109 19.2081 6.95547 19.2188 6.96191C19.2317 6.96836 19.2403 7.00918 19.2403 7.05C19.2403 7.09082 19.2511 7.12305 19.2618 7.12305C19.2747 7.12305 19.2833 7.16602 19.2833 7.21758C19.2833 7.27129 19.294 7.3207 19.3048 7.32715C19.3177 7.33359 19.3263 7.3873 19.3263 7.44531C19.3263 7.50332 19.337 7.55703 19.3478 7.56348C19.3606 7.56992 19.3692 7.65371 19.3692 7.74609C19.3692 7.83848 19.38 7.92227 19.3907 7.92871C19.4036 7.9373 19.4122 8.0834 19.4122 8.29395C19.4122 8.50449 19.4208 8.65059 19.4337 8.65918C19.4638 8.67852 19.4638 15.3215 19.4337 15.3408C19.4208 15.3494 19.4122 15.4955 19.4122 15.7061C19.4122 15.9166 19.4036 16.0627 19.3907 16.0713C19.38 16.0777 19.3692 16.1551 19.3692 16.2432C19.3692 16.3312 19.3606 16.4086 19.3478 16.415C19.337 16.4215 19.3263 16.4795 19.3263 16.5439C19.3263 16.6084 19.3177 16.6664 19.3048 16.6729C19.294 16.6793 19.2833 16.7287 19.2833 16.7824C19.2833 16.834 19.2747 16.877 19.2618 16.877C19.2511 16.877 19.2403 16.9092 19.2403 16.95C19.2403 16.9908 19.2317 17.0316 19.2188 17.0381C19.2081 17.0445 19.1974 17.0789 19.1974 17.1154C19.1974 17.1498 19.1888 17.1777 19.1759 17.1777C19.1651 17.1777 19.1544 17.1971 19.1544 17.2207C19.1544 17.2443 19.1458 17.283 19.1329 17.3066C19.1222 17.3303 19.1028 17.3689 19.0899 17.3926C19.0792 17.4162 19.0685 17.4549 19.0685 17.4785C19.0685 17.5021 19.0599 17.5215 19.047 17.5215C19.0362 17.5215 19.0255 17.5408 19.0255 17.5645C19.0255 17.5881 19.0169 17.6074 19.004 17.6074C18.9933 17.6074 18.9825 17.6268 18.9825 17.6504C18.9825 17.674 18.9739 17.6934 18.961 17.6934C18.9503 17.6934 18.9396 17.7127 18.9396 17.7363C18.9396 17.76 18.931 17.7793 18.9181 17.7793C18.9073 17.7793 18.8966 17.7922 18.8966 17.8072C18.8966 17.8223 18.8772 17.8566 18.8536 17.8824C18.83 17.9082 18.8106 17.9383 18.8106 17.9512C18.8106 17.9619 18.7827 18.0027 18.7462 18.0414C18.7118 18.0779 18.6817 18.1166 18.6817 18.1273C18.6817 18.151 18.1511 18.6816 18.1274 18.6816C18.1167 18.6816 18.078 18.7117 18.0415 18.7461C18.0028 18.7826 17.962 18.8105 17.9513 18.8105C17.9384 18.8105 17.9083 18.8299 17.8825 18.8535C17.8567 18.8771 17.8224 18.8965 17.8073 18.8965C17.7923 18.8965 17.7794 18.9051 17.7794 18.918C17.7794 18.9287 17.7601 18.9395 17.7364 18.9395C17.7128 18.9395 17.6935 18.948 17.6935 18.9609C17.6935 18.9717 17.6741 18.9824 17.6505 18.9824C17.6269 18.9824 17.6075 18.991 17.6075 19.0039C17.6075 19.0146 17.5882 19.0254 17.5646 19.0254C17.5409 19.0254 17.5216 19.034 17.5216 19.0469C17.5216 19.0576 17.5022 19.0684 17.4786 19.0684C17.455 19.0684 17.4163 19.0791 17.3927 19.0898C17.369 19.1006 17.3304 19.1199 17.3067 19.1328C17.2831 19.1436 17.2444 19.1543 17.2208 19.1543C17.1972 19.1543 17.1778 19.1629 17.1778 19.1758C17.1778 19.1865 17.1499 19.1973 17.1155 19.1973C17.079 19.1973 17.0446 19.208 17.0382 19.2187C17.0317 19.2316 16.9909 19.2402 16.9501 19.2402C16.9093 19.2402 16.8771 19.2488 16.8771 19.2617C16.8771 19.2725 16.8341 19.2832 16.7825 19.2832C16.7288 19.2832 16.6794 19.2918 16.6729 19.3047C16.6665 19.3154 16.6128 19.3262 16.5548 19.3262C16.4968 19.3262 16.4431 19.3348 16.4366 19.3477C16.4302 19.3584 16.3464 19.3691 16.254 19.3691C16.1616 19.3691 16.0778 19.3777 16.0714 19.3906C16.0628 19.4035 15.9167 19.4121 15.7062 19.4121C15.4956 19.4121 15.3495 19.4207 15.3409 19.4336C15.3216 19.4637 8.67861 19.4637 8.65928 19.4336C8.65068 19.4207 8.50459 19.4121 8.29404 19.4121C8.0835 19.4121 7.9374 19.4035 7.92881 19.3906C7.92236 19.3799 7.84502 19.3691 7.75693 19.3691C7.66885 19.3691 7.5915 19.3584 7.58506 19.3477C7.57861 19.3348 7.52061 19.3262 7.45615 19.3262C7.3917 19.3262 7.33369 19.3176 7.32725 19.3047C7.3208 19.2939 7.27139 19.2832 7.21768 19.2832C7.16611 19.2832 7.12314 19.2725 7.12314 19.2617C7.12314 19.2488 7.09092 19.2402 7.0501 19.2402C7.00928 19.2402 6.96846 19.2295 6.96201 19.2187C6.95557 19.2059 6.92119 19.1973 6.88467 19.1973C6.85029 19.1973 6.82236 19.1865 6.82236 19.1758C6.82236 19.1629 6.79873 19.1543 6.7708 19.1543C6.74072 19.1543 6.71064 19.1436 6.7042 19.1328C6.69775 19.1199 6.67197 19.1113 6.64834 19.1113C6.62686 19.1113 6.60752 19.1006 6.60752 19.0898C6.60752 19.077 6.57959 19.0684 6.54307 19.0684C6.50869 19.0684 6.47861 19.0576 6.47861 19.0469C6.47861 19.034 6.45928 19.0254 6.43564 19.0254C6.41201 19.0254 6.39268 19.0146 6.39268 19.0039C6.39268 18.991 6.37334 18.9824 6.34971 18.9824C6.32607 18.9824 6.30674 18.9717 6.30674 18.9609C6.30674 18.948 6.2874 18.9395 6.26377 18.9395C6.24014 18.9395 6.2208 18.9287 6.2208 18.918C6.2208 18.9051 6.20791 18.8965 6.19287 18.8965C6.17783 18.8965 6.14346 18.8771 6.11768 18.8535C6.09189 18.8299 6.06182 18.8105 6.04893 18.8105C6.03818 18.8105 5.99736 18.7805 5.95869 18.7461C5.92217 18.7096 5.8835 18.6816 5.87275 18.6816C5.84912 18.6816 5.31846 18.151 5.31846 18.1273C5.31846 18.1166 5.28838 18.0779 5.254 18.0414C5.21748 18.0027 5.18955 17.9619 5.18955 17.9512C5.18955 17.9383 5.17021 17.9082 5.14658 17.8824C5.12295 17.8566 5.10361 17.8223 5.10361 17.8072C5.10361 17.7922 5.09502 17.7793 5.08213 17.7793C5.07139 17.7793 5.06064 17.76 5.06064 17.7363C5.06064 17.7127 5.05205 17.6934 5.03916 17.6934C5.02842 17.6934 5.01768 17.674 5.01768 17.6504C5.01768 17.6268 5.00908 17.6074 4.99619 17.6074C4.98545 17.6074 4.97471 17.5881 4.97471 17.5645C4.97471 17.5408 4.96611 17.5215 4.95322 17.5215C4.94248 17.5215 4.93174 17.4914 4.93174 17.457C4.93174 17.4205 4.92314 17.3926 4.91025 17.3926C4.89951 17.3926 4.88877 17.3732 4.88877 17.3518C4.88877 17.3281 4.87803 17.3023 4.86729 17.2959C4.85439 17.2895 4.8458 17.2594 4.8458 17.2293C4.8458 17.2014 4.83721 17.1777 4.82432 17.1777C4.81357 17.1777 4.80283 17.1498 4.80283 17.1154C4.80283 17.0789 4.79424 17.0445 4.78135 17.0381C4.77061 17.0316 4.75986 16.9908 4.75986 16.95C4.75986 16.9092 4.75127 16.877 4.73838 16.877C4.72764 16.877 4.71689 16.834 4.71689 16.7824C4.71689 16.7287 4.7083 16.6793 4.69541 16.6729C4.68467 16.6664 4.67393 16.6127 4.67393 16.5547C4.67393 16.4967 4.66533 16.443 4.65244 16.4365C4.6417 16.4301 4.63096 16.3463 4.63096 16.2539C4.63096 16.1615 4.62021 16.0777 4.60947 16.0713C4.59658 16.0627 4.58799 15.9166 4.58799 15.7061C4.58799 15.4955 4.57939 15.3494 4.5665 15.3408C4.53643 15.3215 4.53643 8.67852 4.5665 8.65918C4.57939 8.65059 4.58799 8.50449 4.58799 8.29395C4.58799 8.0834 4.59658 7.9373 4.60947 7.92871C4.62236 7.92227 4.63096 7.83848 4.63096 7.74609C4.63096 7.65371 4.63955 7.56992 4.65244 7.56348C4.66318 7.55703 4.67393 7.50332 4.67393 7.44531C4.67393 7.3873 4.68252 7.33359 4.69541 7.32715C4.70615 7.3207 4.71689 7.27129 4.71689 7.21758C4.71689 7.16602 4.72764 7.12305 4.73838 7.12305C4.75127 7.12305 4.75986 7.09082 4.75986 7.05C4.75986 7.00918 4.77061 6.96836 4.78135 6.96191C4.79424 6.95547 4.80283 6.92109 4.80283 6.88457C4.80283 6.8502 4.81357 6.82227 4.82432 6.82227C4.83721 6.82227 4.8458 6.79863 4.8458 6.7707C4.8458 6.74062 4.85654 6.71055 4.86729 6.7041C4.88018 6.69766 4.88877 6.67187 4.88877 6.64824C4.88877 6.62676 4.89951 6.60742 4.91025 6.60742C4.92314 6.60742 4.93174 6.57734 4.93174 6.54297C4.93174 6.50644 4.94248 6.47852 4.95322 6.47852C4.96611 6.47852 4.97471 6.45918 4.97471 6.43555C4.97471 6.41191 4.98545 6.39258 4.99619 6.39258C5.00908 6.39258 5.01768 6.37324 5.01768 6.34961C5.01768 6.32598 5.02842 6.30664 5.03916 6.30664C5.05205 6.30664 5.06064 6.2873 5.06064 6.26367C5.06064 6.24004 5.07139 6.2207 5.08213 6.2207C5.09502 6.2207 5.10361 6.20781 5.10361 6.19277C5.10361 6.17773 5.12295 6.14336 5.14658 6.11758C5.17021 6.0918 5.18955 6.06172 5.18955 6.04883C5.18955 6.03809 5.21963 5.99727 5.254 5.95859C5.29053 5.92207 5.31846 5.8834 5.31846 5.87266C5.31846 5.84902 5.84912 5.31836 5.87275 5.31836C5.8835 5.31836 5.92217 5.28828 5.95869 5.25391C5.99736 5.21738 6.03818 5.18945 6.04893 5.18945C6.06182 5.18945 6.09189 5.17012 6.11768 5.14648C6.14346 5.12285 6.17783 5.10352 6.19287 5.10352C6.20791 5.10352 6.2208 5.09277 6.2208 5.08203C6.2208 5.06914 6.24014 5.06055 6.26377 5.06055C6.2874 5.06055 6.30674 5.0498 6.30674 5.03906C6.30674 5.02617 6.32607 5.01758 6.34971 5.01758C6.37334 5.01758 6.39268 5.00684 6.39268 4.99609C6.39268 4.9832 6.41201 4.97461 6.43564 4.97461C6.45928 4.97461 6.47861 4.96387 6.47861 4.95312C6.47861 4.94023 6.50869 4.93164 6.54307 4.93164C6.57959 4.93164 6.60752 4.9209 6.60752 4.91016C6.60752 4.89727 6.62686 4.88867 6.64834 4.88867C6.67197 4.88867 6.69775 4.87793 6.7042 4.86719C6.71064 4.8543 6.74072 4.8457 6.7708 4.8457C6.79873 4.8457 6.82236 4.83496 6.82236 4.82422C6.82236 4.81133 6.85244 4.80273 6.88682 4.80273C6.92334 4.80273 6.95127 4.79199 6.95127 4.78125C6.95127 4.76836 6.98994 4.75977 7.03721 4.75977C7.08447 4.75977 7.12314 4.74902 7.12314 4.73828C7.12314 4.72539 7.16611 4.7168 7.21768 4.7168C7.27139 4.7168 7.3208 4.70605 7.32725 4.69531C7.33369 4.68242 7.3874 4.67383 7.44756 4.67383C7.50557 4.67383 7.55283 4.66309 7.55283 4.65234C7.55283 4.63945 7.62803 4.63086 7.7333 4.63086C7.83428 4.63086 7.92236 4.62012 7.92881 4.60937C7.9374 4.59648 8.0835 4.58789 8.29404 4.58789C8.50459 4.58789 8.65068 4.5793 8.65928 4.56641C8.66787 4.55137 9.80439 4.54492 12.0001 4.54492C14.1958 4.54492 15.3323 4.55137 15.3409 4.56641Z" fill="black"/>
<path d="M16.6621 5.98437C16.6621 5.99512 16.6234 6.00586 16.5762 6.00586C16.5289 6.00586 16.4902 6.01445 16.4902 6.02734C16.4902 6.03809 16.4709 6.04883 16.4473 6.04883C16.4236 6.04883 16.4043 6.05742 16.4043 6.07031C16.4043 6.08105 16.385 6.0918 16.3613 6.0918C16.3377 6.0918 16.3184 6.10039 16.3184 6.11328C16.3184 6.12402 16.3033 6.13477 16.2861 6.13477C16.2346 6.13477 15.9338 6.42266 15.9316 6.47422C15.9316 6.48281 15.9123 6.51289 15.8887 6.54297C15.865 6.57305 15.8457 6.61816 15.8457 6.64395C15.8457 6.67187 15.8371 6.69336 15.8242 6.69336C15.8135 6.69336 15.8027 6.72129 15.8027 6.75781C15.8027 6.79219 15.7941 6.82227 15.7813 6.82227C15.7684 6.82227 15.7598 6.92969 15.7598 7.10156C15.7598 7.27344 15.7684 7.38086 15.7813 7.38086C15.7941 7.38086 15.8027 7.41309 15.8027 7.45391C15.8027 7.49473 15.8135 7.53555 15.8242 7.54199C15.8371 7.54844 15.8457 7.57422 15.8457 7.59785C15.8457 7.61934 15.8564 7.63867 15.8672 7.63867C15.8801 7.63867 15.8887 7.65586 15.8887 7.67734C15.8887 7.69883 15.908 7.72891 15.9316 7.74609C15.9553 7.76328 15.9746 7.78906 15.9746 7.80195C15.9746 7.83633 16.1637 8.02539 16.198 8.02539C16.2109 8.02539 16.2367 8.04473 16.2539 8.06836C16.2711 8.09199 16.3012 8.11133 16.3227 8.11133C16.3441 8.11133 16.3613 8.11992 16.3613 8.13281C16.3613 8.14355 16.3807 8.1543 16.4021 8.1543C16.4258 8.1543 16.4516 8.16289 16.458 8.17578C16.4645 8.18652 16.5053 8.19727 16.5461 8.19727C16.5869 8.19727 16.6191 8.20586 16.6191 8.21875C16.6191 8.23164 16.7266 8.24023 16.8984 8.24023C17.0703 8.24023 17.1777 8.23164 17.1777 8.21875C17.1777 8.20586 17.2078 8.19727 17.2422 8.19727C17.2787 8.19727 17.3066 8.18652 17.3066 8.17578C17.3066 8.16289 17.3281 8.1543 17.3561 8.1543C17.3818 8.1543 17.427 8.13496 17.457 8.11133C17.4871 8.0877 17.5172 8.06836 17.5258 8.06836C17.5773 8.06621 17.8652 7.76543 17.8652 7.71387C17.8652 7.69668 17.876 7.68164 17.8867 7.68164C17.8996 7.68164 17.9082 7.6623 17.9082 7.63867C17.9082 7.61504 17.9189 7.5957 17.9297 7.5957C17.9426 7.5957 17.9512 7.57637 17.9512 7.55273C17.9512 7.5291 17.9619 7.50977 17.9727 7.50977C17.9855 7.50977 17.9941 7.47109 17.9941 7.42383C17.9941 7.37656 18.0049 7.33789 18.0156 7.33789C18.0285 7.33789 18.0371 7.24551 18.0371 7.10156C18.0371 6.95762 18.0285 6.86523 18.0156 6.86523C18.0049 6.86523 17.9941 6.83301 17.9941 6.79219C17.9941 6.75137 17.9855 6.71055 17.9727 6.7041C17.9619 6.69766 17.9512 6.67187 17.9512 6.64824C17.9512 6.62676 17.9426 6.60742 17.9297 6.60742C17.9189 6.60742 17.9082 6.58809 17.9082 6.56445C17.9082 6.54082 17.8996 6.52148 17.8867 6.52148C17.876 6.52148 17.8652 6.50645 17.8652 6.48926C17.8652 6.44629 17.5537 6.13477 17.5107 6.13477C17.4936 6.13477 17.4785 6.12402 17.4785 6.11328C17.4785 6.10039 17.4592 6.0918 17.4355 6.0918C17.4119 6.0918 17.3926 6.08105 17.3926 6.07031C17.3926 6.05742 17.3732 6.04883 17.3518 6.04883C17.3281 6.04883 17.3023 6.03809 17.2959 6.02734C17.2895 6.01445 17.2486 6.00586 17.2078 6.00586C17.167 6.00586 17.1348 5.99512 17.1348 5.98437C17.1348 5.97148 17.0424 5.96289 16.8984 5.96289C16.7545 5.96289 16.6621 5.97148 16.6621 5.98437Z" fill="black"/>
<path d="M11.5059 7.27344C11.5059 7.28633 11.4414 7.29492 11.3576 7.29492C11.2738 7.29492 11.2008 7.30352 11.1943 7.31641C11.1879 7.32715 11.1342 7.33789 11.0762 7.33789C11.0182 7.33789 10.9645 7.34648 10.958 7.35937C10.9516 7.37012 10.9064 7.38086 10.8592 7.38086C10.8141 7.38086 10.7754 7.38945 10.7754 7.40234C10.7754 7.41309 10.7432 7.42383 10.7023 7.42383C10.6615 7.42383 10.6207 7.43242 10.6143 7.44531C10.6078 7.45605 10.5734 7.4668 10.5369 7.4668C10.5025 7.4668 10.4746 7.47539 10.4746 7.48828C10.4746 7.49902 10.451 7.50977 10.423 7.50977C10.393 7.50977 10.3629 7.51836 10.3564 7.53125C10.35 7.54199 10.3242 7.55273 10.3006 7.55273C10.2791 7.55273 10.2598 7.56133 10.2598 7.57422C10.2598 7.58496 10.2318 7.5957 10.1953 7.5957C10.1609 7.5957 10.1309 7.6043 10.1309 7.61719C10.1309 7.62793 10.1115 7.63867 10.0879 7.63867C10.0643 7.63867 10.0449 7.64727 10.0449 7.66016C10.0449 7.6709 10.0256 7.68164 10.002 7.68164C9.97832 7.68164 9.95898 7.69023 9.95898 7.70312C9.95898 7.71387 9.93965 7.72461 9.91602 7.72461C9.89238 7.72461 9.87305 7.7332 9.87305 7.74609C9.87305 7.75684 9.85371 7.76758 9.83008 7.76758C9.80645 7.76758 9.78711 7.77617 9.78711 7.78906C9.78711 7.7998 9.76777 7.81055 9.74414 7.81055C9.72051 7.81055 9.70117 7.81914 9.70117 7.83203C9.70117 7.84277 9.68184 7.85352 9.6582 7.85352C9.63457 7.85352 9.61523 7.86211 9.61523 7.875C9.61523 7.88574 9.60234 7.89648 9.5873 7.89648C9.57227 7.89648 9.53789 7.91582 9.51211 7.93945C9.48633 7.96309 9.4541 7.98242 9.43906 7.98242C9.42188 7.98242 9.39609 8.00176 9.37891 8.02539C9.36172 8.04902 9.33379 8.06836 9.31445 8.06836C9.29512 8.06836 9.26719 8.0877 9.25 8.11133C9.23281 8.13496 9.20918 8.1543 9.19629 8.1543C9.1834 8.1543 9.12969 8.19297 9.07813 8.24023C9.02656 8.2875 8.975 8.32617 8.96641 8.32617C8.94277 8.32617 8.32617 8.94277 8.32617 8.96641C8.32617 8.975 8.2875 9.02656 8.24023 9.07812C8.19297 9.12969 8.1543 9.1834 8.1543 9.19629C8.1543 9.20918 8.13496 9.23281 8.11133 9.25C8.0877 9.26719 8.06836 9.29512 8.06836 9.31445C8.06836 9.33379 8.04902 9.36172 8.02539 9.37891C8.00176 9.39609 7.98242 9.42187 7.98242 9.43906C7.98242 9.4541 7.96309 9.48633 7.93945 9.51211C7.91582 9.53789 7.89648 9.57227 7.89648 9.5873C7.89648 9.60234 7.88789 9.61523 7.875 9.61523C7.86426 9.61523 7.85352 9.63457 7.85352 9.6582C7.85352 9.68184 7.84492 9.70117 7.83203 9.70117C7.82129 9.70117 7.81055 9.72051 7.81055 9.74414C7.81055 9.76777 7.80195 9.78711 7.78906 9.78711C7.77832 9.78711 7.76758 9.80645 7.76758 9.83008C7.76758 9.85371 7.75898 9.87305 7.74609 9.87305C7.73535 9.87305 7.72461 9.89238 7.72461 9.91602C7.72461 9.93965 7.71602 9.95898 7.70313 9.95898C7.69238 9.95898 7.68164 9.97832 7.68164 10.002C7.68164 10.0256 7.67305 10.0449 7.66016 10.0449C7.64941 10.0449 7.63867 10.0643 7.63867 10.0879C7.63867 10.1115 7.63008 10.1309 7.61719 10.1309C7.60645 10.1309 7.5957 10.1588 7.5957 10.1953C7.5957 10.2297 7.58711 10.2598 7.57422 10.2598C7.56348 10.2598 7.55273 10.2791 7.55273 10.3006C7.55273 10.3242 7.54414 10.35 7.53125 10.3564C7.52051 10.3629 7.50977 10.393 7.50977 10.423C7.50977 10.451 7.50117 10.4746 7.48828 10.4746C7.47754 10.4746 7.4668 10.5025 7.4668 10.5369C7.4668 10.5734 7.4582 10.6078 7.44531 10.6143C7.43457 10.6207 7.42383 10.6615 7.42383 10.7023C7.42383 10.7432 7.41523 10.7754 7.40234 10.7754C7.3916 10.7754 7.38086 10.8141 7.38086 10.8592C7.38086 10.9064 7.37227 10.9516 7.35938 10.958C7.34863 10.9645 7.33789 11.0182 7.33789 11.0762C7.33789 11.1342 7.3293 11.1879 7.31641 11.1943C7.30566 11.2008 7.29492 11.2738 7.29492 11.3576C7.29492 11.4414 7.28633 11.5059 7.27344 11.5059C7.26055 11.5059 7.25195 11.6842 7.25195 12C7.25195 12.3158 7.26055 12.4941 7.27344 12.4941C7.28633 12.4941 7.29492 12.5586 7.29492 12.6424C7.29492 12.7262 7.30566 12.7992 7.31641 12.8057C7.3293 12.8121 7.33789 12.8658 7.33789 12.9238C7.33789 12.9818 7.34863 13.0355 7.35938 13.042C7.37227 13.0484 7.38086 13.0936 7.38086 13.1408C7.38086 13.1859 7.3916 13.2246 7.40234 13.2246C7.41523 13.2246 7.42383 13.2525 7.42383 13.2869C7.42383 13.3234 7.43457 13.3578 7.44531 13.3643C7.4582 13.3707 7.4668 13.4115 7.4668 13.4523C7.4668 13.4932 7.47754 13.5254 7.48828 13.5254C7.50117 13.5254 7.50977 13.549 7.50977 13.577C7.50977 13.607 7.52051 13.6371 7.53125 13.6436C7.54414 13.65 7.55273 13.6758 7.55273 13.6994C7.55273 13.7209 7.56348 13.7402 7.57422 13.7402C7.58711 13.7402 7.5957 13.7682 7.5957 13.8047C7.5957 13.8391 7.60645 13.8691 7.61719 13.8691C7.63008 13.8691 7.63867 13.8885 7.63867 13.9121C7.63867 13.9357 7.64941 13.9551 7.66016 13.9551C7.67305 13.9551 7.68164 13.9744 7.68164 13.998C7.68164 14.0217 7.69238 14.041 7.70313 14.041C7.71602 14.041 7.72461 14.0604 7.72461 14.084C7.72461 14.1076 7.73535 14.127 7.74609 14.127C7.75898 14.127 7.76758 14.1463 7.76758 14.1699C7.76758 14.1936 7.77832 14.2129 7.78906 14.2129C7.80195 14.2129 7.81055 14.2322 7.81055 14.2559C7.81055 14.2795 7.82129 14.2988 7.83203 14.2988C7.84492 14.2988 7.85352 14.3182 7.85352 14.3418C7.85352 14.3654 7.86426 14.3848 7.875 14.3848C7.88789 14.3848 7.89648 14.3977 7.89648 14.4127C7.89648 14.4277 7.91582 14.4621 7.93945 14.4879C7.96309 14.5137 7.98242 14.5459 7.98242 14.5609C7.98242 14.5781 8.00176 14.6039 8.02539 14.6211C8.04902 14.6383 8.06836 14.6662 8.06836 14.6855C8.06836 14.7049 8.0877 14.7328 8.11133 14.75C8.13496 14.7672 8.1543 14.7908 8.1543 14.8037C8.1543 14.8166 8.19297 14.8703 8.24023 14.9219C8.2875 14.9734 8.32617 15.025 8.32617 15.0336C8.32617 15.0594 8.94492 15.6738 8.9707 15.6738C8.98145 15.6738 9.03301 15.7125 9.08027 15.7598C9.12969 15.807 9.18125 15.8457 9.19414 15.8457C9.20703 15.8457 9.23281 15.865 9.25 15.8887C9.26719 15.9123 9.29512 15.9316 9.31445 15.9316C9.33379 15.9316 9.36172 15.951 9.37891 15.9746C9.39609 15.9982 9.42188 16.0176 9.43906 16.0176C9.4541 16.0176 9.48633 16.0369 9.51211 16.0605C9.53789 16.0842 9.57227 16.1035 9.5873 16.1035C9.60234 16.1035 9.61523 16.1121 9.61523 16.125C9.61523 16.1357 9.63457 16.1465 9.6582 16.1465C9.68184 16.1465 9.70117 16.1551 9.70117 16.168C9.70117 16.1787 9.72051 16.1895 9.74414 16.1895C9.76777 16.1895 9.78711 16.198 9.78711 16.2109C9.78711 16.2217 9.80645 16.2324 9.83008 16.2324C9.85371 16.2324 9.87305 16.241 9.87305 16.2539C9.87305 16.2646 9.89238 16.2754 9.91602 16.2754C9.93965 16.2754 9.95898 16.284 9.95898 16.2969C9.95898 16.3076 9.97832 16.3184 10.002 16.3184C10.0256 16.3184 10.0449 16.327 10.0449 16.3398C10.0449 16.3506 10.0643 16.3613 10.0879 16.3613C10.1115 16.3613 10.1309 16.3699 10.1309 16.3828C10.1309 16.3936 10.1609 16.4043 10.1953 16.4043C10.2318 16.4043 10.2598 16.4129 10.2598 16.4258C10.2598 16.4365 10.2791 16.4473 10.3006 16.4473C10.3242 16.4473 10.35 16.4559 10.3564 16.4687C10.3629 16.4795 10.393 16.4902 10.4209 16.4902C10.4488 16.4902 10.4789 16.4988 10.4854 16.5117C10.4918 16.5225 10.5262 16.5332 10.5605 16.5332C10.5949 16.5332 10.6293 16.5418 10.6357 16.5547C10.6422 16.5654 10.6766 16.5762 10.7131 16.5762C10.7475 16.5762 10.7754 16.5848 10.7754 16.5977C10.7754 16.6084 10.8141 16.6191 10.8592 16.6191C10.9064 16.6191 10.9516 16.6299 10.958 16.6406C10.9645 16.6514 11.0182 16.6621 11.0762 16.6621C11.1342 16.6621 11.1879 16.6707 11.1943 16.6836C11.2008 16.6943 11.2738 16.7051 11.3576 16.7051C11.4414 16.7051 11.5059 16.7137 11.5059 16.7266C11.5059 16.7395 11.6842 16.748 12 16.748C12.3158 16.748 12.4941 16.7395 12.4941 16.7266C12.4941 16.7137 12.5586 16.7051 12.6424 16.7051C12.7262 16.7051 12.7992 16.6943 12.8057 16.6836C12.8121 16.6707 12.8658 16.6621 12.9238 16.6621C12.9818 16.6621 13.0355 16.6514 13.042 16.6406C13.0484 16.6299 13.0936 16.6191 13.1408 16.6191C13.1859 16.6191 13.2246 16.6084 13.2246 16.5977C13.2246 16.5848 13.2525 16.5762 13.2869 16.5762C13.3234 16.5762 13.3578 16.5654 13.3643 16.5547C13.3707 16.5418 13.4051 16.5332 13.4395 16.5332C13.4738 16.5332 13.5082 16.5246 13.5146 16.5117C13.5211 16.4988 13.5512 16.4902 13.5791 16.4902C13.607 16.4902 13.6371 16.4795 13.6436 16.4687C13.65 16.4559 13.6758 16.4473 13.6994 16.4473C13.7209 16.4473 13.7402 16.4365 13.7402 16.4258C13.7402 16.4129 13.7703 16.4043 13.8047 16.4043C13.8412 16.4043 13.8691 16.3936 13.8691 16.3828C13.8691 16.3699 13.8885 16.3613 13.9121 16.3613C13.9357 16.3613 13.9551 16.3506 13.9551 16.3398C13.9551 16.327 13.9744 16.3184 13.998 16.3184C14.0217 16.3184 14.041 16.3076 14.041 16.2969C14.041 16.284 14.0604 16.2754 14.084 16.2754C14.1076 16.2754 14.127 16.2646 14.127 16.2539C14.127 16.241 14.1463 16.2324 14.1699 16.2324C14.1936 16.2324 14.2129 16.2217 14.2129 16.2109C14.2129 16.198 14.2322 16.1895 14.2559 16.1895C14.2795 16.1895 14.2988 16.1787 14.2988 16.168C14.2988 16.1551 14.3182 16.1465 14.3418 16.1465C14.3654 16.1465 14.3848 16.1357 14.3848 16.125C14.3848 16.1121 14.3977 16.1035 14.4127 16.1035C14.4277 16.1035 14.4621 16.0842 14.4879 16.0605C14.5137 16.0369 14.5459 16.0176 14.5609 16.0176C14.5781 16.0176 14.6039 15.9982 14.6211 15.9746C14.6383 15.951 14.6662 15.9316 14.6855 15.9316C14.7049 15.9316 14.7328 15.9123 14.75 15.8887C14.7672 15.865 14.7908 15.8457 14.8037 15.8457C14.8166 15.8457 14.8703 15.807 14.9219 15.7598C14.9734 15.7125 15.025 15.6738 15.0336 15.6738C15.0594 15.6738 15.6738 15.0551 15.6738 15.0293C15.6738 15.0186 15.7125 14.967 15.7598 14.9197C15.807 14.8703 15.8457 14.8187 15.8457 14.8059C15.8457 14.793 15.865 14.7672 15.8887 14.75C15.9123 14.7328 15.9316 14.7049 15.9316 14.6855C15.9316 14.6662 15.951 14.6383 15.9746 14.6211C15.9982 14.6039 16.0176 14.5781 16.0176 14.5609C16.0176 14.5459 16.0369 14.5137 16.0605 14.4879C16.0842 14.4621 16.1035 14.4277 16.1035 14.4127C16.1035 14.3977 16.1143 14.3848 16.125 14.3848C16.1379 14.3848 16.1465 14.3654 16.1465 14.3418C16.1465 14.3182 16.1572 14.2988 16.168 14.2988C16.1809 14.2988 16.1895 14.2795 16.1895 14.2559C16.1895 14.2322 16.2002 14.2129 16.2109 14.2129C16.2238 14.2129 16.2324 14.1936 16.2324 14.1699C16.2324 14.1463 16.2432 14.127 16.2539 14.127C16.2668 14.127 16.2754 14.1076 16.2754 14.084C16.2754 14.0604 16.2861 14.041 16.2969 14.041C16.3098 14.041 16.3184 14.0217 16.3184 13.998C16.3184 13.9744 16.3291 13.9551 16.3398 13.9551C16.3527 13.9551 16.3613 13.9357 16.3613 13.9121C16.3613 13.8885 16.3721 13.8691 16.3828 13.8691C16.3957 13.8691 16.4043 13.8391 16.4043 13.8047C16.4043 13.7682 16.415 13.7402 16.4258 13.7402C16.4387 13.7402 16.4473 13.7209 16.4473 13.6994C16.4473 13.6758 16.4559 13.65 16.4688 13.6436C16.4816 13.6371 16.4902 13.607 16.4902 13.5791C16.4902 13.5512 16.501 13.5211 16.5117 13.5146C16.5246 13.5082 16.5332 13.4738 16.5332 13.4395C16.5332 13.4051 16.5439 13.3707 16.5547 13.3643C16.5676 13.3578 16.5762 13.3234 16.5762 13.2869C16.5762 13.2525 16.5869 13.2246 16.5977 13.2246C16.6105 13.2246 16.6191 13.1859 16.6191 13.1408C16.6191 13.0936 16.6299 13.0484 16.6406 13.042C16.6535 13.0355 16.6621 12.9818 16.6621 12.9238C16.6621 12.8658 16.6729 12.8121 16.6836 12.8057C16.6965 12.7992 16.7051 12.7262 16.7051 12.6424C16.7051 12.5586 16.7137 12.4941 16.7266 12.4941C16.7395 12.4941 16.748 12.3158 16.748 12C16.748 11.6842 16.7395 11.5059 16.7266 11.5059C16.7137 11.5059 16.7051 11.4414 16.7051 11.3576C16.7051 11.2738 16.6965 11.2008 16.6836 11.1943C16.6729 11.1879 16.6621 11.1342 16.6621 11.0762C16.6621 11.0182 16.6535 10.9645 16.6406 10.958C16.6299 10.9516 16.6191 10.9064 16.6191 10.8592C16.6191 10.8141 16.6105 10.7754 16.5977 10.7754C16.5869 10.7754 16.5762 10.7475 16.5762 10.7131C16.5762 10.6766 16.5676 10.6422 16.5547 10.6357C16.5439 10.6293 16.5332 10.5949 16.5332 10.5605C16.5332 10.5262 16.5246 10.4918 16.5117 10.4854C16.501 10.4789 16.4902 10.4488 16.4902 10.4209C16.4902 10.393 16.4816 10.3629 16.4688 10.3564C16.458 10.35 16.4473 10.3242 16.4473 10.3006C16.4473 10.2791 16.4387 10.2598 16.4258 10.2598C16.415 10.2598 16.4043 10.2297 16.4043 10.1953C16.4043 10.1588 16.3957 10.1309 16.3828 10.1309C16.3721 10.1309 16.3613 10.1115 16.3613 10.0879C16.3613 10.0643 16.3527 10.0449 16.3398 10.0449C16.3291 10.0449 16.3184 10.0256 16.3184 10.002C16.3184 9.97832 16.3098 9.95898 16.2969 9.95898C16.2861 9.95898 16.2754 9.93965 16.2754 9.91602C16.2754 9.89238 16.2668 9.87305 16.2539 9.87305C16.2432 9.87305 16.2324 9.85371 16.2324 9.83008C16.2324 9.80645 16.2238 9.78711 16.2109 9.78711C16.2002 9.78711 16.1895 9.76777 16.1895 9.74414C16.1895 9.72051 16.1809 9.70117 16.168 9.70117C16.1572 9.70117 16.1465 9.68184 16.1465 9.6582C16.1465 9.63457 16.1379 9.61523 16.125 9.61523C16.1143 9.61523 16.1035 9.60234 16.1035 9.5873C16.1035 9.57227 16.0842 9.53789 16.0605 9.51211C16.0369 9.48633 16.0176 9.4541 16.0176 9.43906C16.0176 9.42187 15.9982 9.39609 15.9746 9.37891C15.951 9.36172 15.9316 9.33379 15.9316 9.31445C15.9316 9.29512 15.9123 9.26719 15.8887 9.25C15.865 9.23281 15.8457 9.20918 15.8457 9.19629C15.8457 9.1834 15.807 9.12969 15.7598 9.07812C15.7125 9.02656 15.6738 8.975 15.6738 8.96641C15.6738 8.95566 15.5342 8.80957 15.3623 8.6377C15.1904 8.46582 15.0443 8.32617 15.0336 8.32617C15.025 8.32617 14.9734 8.2875 14.9219 8.24023C14.8703 8.19297 14.8166 8.1543 14.8037 8.1543C14.7908 8.1543 14.7672 8.13496 14.75 8.11133C14.7328 8.0877 14.7049 8.06836 14.6855 8.06836C14.6662 8.06836 14.6383 8.04902 14.6211 8.02539C14.6039 8.00176 14.5781 7.98242 14.5609 7.98242C14.5459 7.98242 14.5137 7.96309 14.4879 7.93945C14.4621 7.91582 14.4277 7.89648 14.4127 7.89648C14.3977 7.89648 14.3848 7.88574 14.3848 7.875C14.3848 7.86211 14.3654 7.85352 14.3418 7.85352C14.3182 7.85352 14.2988 7.84277 14.2988 7.83203C14.2988 7.81914 14.2795 7.81055 14.2559 7.81055C14.2322 7.81055 14.2129 7.7998 14.2129 7.78906C14.2129 7.77617 14.1936 7.76758 14.1699 7.76758C14.1463 7.76758 14.127 7.75684 14.127 7.74609C14.127 7.7332 14.1076 7.72461 14.084 7.72461C14.0604 7.72461 14.041 7.71387 14.041 7.70312C14.041 7.69023 14.0217 7.68164 13.998 7.68164C13.9744 7.68164 13.9551 7.6709 13.9551 7.66016C13.9551 7.64727 13.9357 7.63867 13.9121 7.63867C13.8885 7.63867 13.8691 7.62793 13.8691 7.61719C13.8691 7.6043 13.8412 7.5957 13.8047 7.5957C13.7703 7.5957 13.7402 7.58496 13.7402 7.57422C13.7402 7.56133 13.7209 7.55273 13.6994 7.55273C13.6758 7.55273 13.65 7.54199 13.6436 7.53125C13.6371 7.51836 13.607 7.50977 13.577 7.50977C13.549 7.50977 13.5254 7.49902 13.5254 7.48828C13.5254 7.47539 13.4932 7.4668 13.4523 7.4668C13.4115 7.4668 13.3707 7.45605 13.3643 7.44531C13.3578 7.43242 13.3234 7.42383 13.2869 7.42383C13.2525 7.42383 13.2246 7.41309 13.2246 7.40234C13.2246 7.38945 13.1859 7.38086 13.1408 7.38086C13.0936 7.38086 13.0484 7.37012 13.042 7.35937C13.0355 7.34648 12.9818 7.33789 12.9238 7.33789C12.8658 7.33789 12.8121 7.32715 12.8057 7.31641C12.7992 7.30352 12.7262 7.29492 12.6424 7.29492C12.5586 7.29492 12.4941 7.28633 12.4941 7.27344C12.4941 7.26055 12.3158 7.25195 12 7.25195C11.6842 7.25195 11.5059 7.26055 11.5059 7.27344ZM12.1504 8.99219C12.1504 9.00508 12.2213 9.01367 12.3201 9.01367C12.4146 9.01367 12.4984 9.02227 12.5049 9.03516C12.5113 9.0459 12.5607 9.05664 12.6145 9.05664C12.666 9.05664 12.709 9.06523 12.709 9.07812C12.709 9.08887 12.7412 9.09961 12.782 9.09961C12.8229 9.09961 12.8637 9.1082 12.8701 9.12109C12.8766 9.13184 12.9066 9.14258 12.9346 9.14258C12.9625 9.14258 12.9926 9.15117 12.999 9.16406C13.0055 9.1748 13.0313 9.18555 13.0549 9.18555C13.0764 9.18555 13.0957 9.19414 13.0957 9.20703C13.0957 9.21777 13.1193 9.22852 13.1473 9.22852C13.1773 9.22852 13.2074 9.23711 13.2139 9.25C13.2203 9.26074 13.2461 9.27148 13.2697 9.27148C13.2912 9.27148 13.3105 9.28008 13.3105 9.29297C13.3105 9.30371 13.3256 9.31445 13.3428 9.31445C13.3621 9.31445 13.3965 9.33379 13.4223 9.35742C13.448 9.38105 13.4824 9.40039 13.4975 9.40039C13.5125 9.40039 13.5254 9.40898 13.5254 9.42187C13.5254 9.43262 13.5426 9.44336 13.5641 9.44336C13.5855 9.44336 13.6156 9.4627 13.6328 9.48633C13.65 9.50996 13.6758 9.5293 13.6908 9.5293C13.7059 9.5293 13.7488 9.55723 13.7875 9.59375C13.824 9.62812 13.8627 9.6582 13.8734 9.6582C13.8971 9.6582 14.3418 10.1029 14.3418 10.1266C14.3418 10.1373 14.3719 10.176 14.4063 10.2125C14.4428 10.2512 14.4707 10.2941 14.4707 10.3092C14.4707 10.3242 14.49 10.35 14.5137 10.3672C14.5373 10.3844 14.5566 10.4145 14.5566 10.4359C14.5566 10.4574 14.5674 10.4746 14.5781 10.4746C14.591 10.4746 14.5996 10.4875 14.5996 10.5025C14.5996 10.5176 14.6189 10.552 14.6426 10.5777C14.6662 10.6035 14.6855 10.6379 14.6855 10.6572C14.6855 10.6744 14.6963 10.6895 14.707 10.6895C14.7199 10.6895 14.7285 10.7088 14.7285 10.7303C14.7285 10.7539 14.7393 10.7797 14.75 10.7861C14.7629 10.7926 14.7715 10.8227 14.7715 10.8527C14.7715 10.8807 14.7822 10.9043 14.793 10.9043C14.8059 10.9043 14.8145 10.9236 14.8145 10.9451C14.8145 10.9687 14.8252 10.9945 14.8359 11.001C14.8488 11.0074 14.8574 11.0375 14.8574 11.0654C14.8574 11.0934 14.8682 11.1234 14.8789 11.1299C14.8918 11.1363 14.9004 11.1771 14.9004 11.218C14.9004 11.2588 14.9111 11.291 14.9219 11.291C14.9348 11.291 14.9434 11.334 14.9434 11.3855C14.9434 11.4393 14.9541 11.4887 14.9648 11.4951C14.9777 11.5016 14.9863 11.5854 14.9863 11.6799C14.9863 11.7787 14.9949 11.8496 15.0078 11.8496C15.0207 11.8496 15.0293 11.9141 15.0293 12C15.0293 12.0859 15.0207 12.1504 15.0078 12.1504C14.9949 12.1504 14.9863 12.2213 14.9863 12.3223C14.9863 12.4232 14.9777 12.4941 14.9648 12.4941C14.9541 12.4941 14.9434 12.5414 14.9434 12.6016C14.9434 12.6596 14.9348 12.709 14.9219 12.709C14.9111 12.709 14.9004 12.7412 14.9004 12.782C14.9004 12.8229 14.8918 12.8637 14.8789 12.8701C14.8682 12.8766 14.8574 12.9066 14.8574 12.9346C14.8574 12.9625 14.8488 12.9926 14.8359 12.999C14.8252 13.0055 14.8145 13.0312 14.8145 13.0549C14.8145 13.0764 14.8059 13.0957 14.793 13.0957C14.7822 13.0957 14.7715 13.1193 14.7715 13.1473C14.7715 13.1773 14.7629 13.2074 14.75 13.2139C14.7393 13.2203 14.7285 13.2461 14.7285 13.2697C14.7285 13.2912 14.7199 13.3105 14.707 13.3105C14.6963 13.3105 14.6855 13.3256 14.6855 13.3428C14.6855 13.3621 14.6662 13.3965 14.6426 13.4223C14.6189 13.448 14.5996 13.4824 14.5996 13.4975C14.5996 13.5125 14.591 13.5254 14.5781 13.5254C14.5674 13.5254 14.5566 13.5426 14.5566 13.5641C14.5566 13.5855 14.5373 13.6156 14.5137 13.6328C14.49 13.65 14.4707 13.6758 14.4707 13.6908C14.4707 13.7059 14.4428 13.7488 14.4063 13.7875C14.3719 13.824 14.3418 13.8627 14.3418 13.8734C14.3418 13.8971 13.8971 14.3418 13.8734 14.3418C13.8627 14.3418 13.824 14.3697 13.7875 14.4062C13.7488 14.4406 13.7059 14.4707 13.6908 14.4707C13.6758 14.4707 13.65 14.49 13.6328 14.5137C13.6156 14.5373 13.5855 14.5566 13.5641 14.5566C13.5426 14.5566 13.5254 14.5652 13.5254 14.5781C13.5254 14.5889 13.5125 14.5996 13.4975 14.5996C13.4824 14.5996 13.448 14.6189 13.4223 14.6426C13.3965 14.6662 13.3621 14.6855 13.3428 14.6855C13.3256 14.6855 13.3105 14.6941 13.3105 14.707C13.3105 14.7178 13.2912 14.7285 13.2697 14.7285C13.2461 14.7285 13.2203 14.7371 13.2139 14.75C13.2074 14.7607 13.1773 14.7715 13.1473 14.7715C13.1193 14.7715 13.0957 14.7801 13.0957 14.793C13.0957 14.8037 13.0764 14.8145 13.0549 14.8145C13.0313 14.8145 13.0055 14.823 12.999 14.8359C12.9926 14.8467 12.9625 14.8574 12.9346 14.8574C12.9066 14.8574 12.8766 14.866 12.8701 14.8789C12.8637 14.8896 12.8229 14.9004 12.782 14.9004C12.7412 14.9004 12.709 14.909 12.709 14.9219C12.709 14.9326 12.6617 14.9434 12.6016 14.9434C12.5436 14.9434 12.4941 14.952 12.4941 14.9648C12.4941 14.9777 12.4232 14.9863 12.3223 14.9863C12.2213 14.9863 12.1504 14.9949 12.1504 15.0078C12.1504 15.0207 12.0859 15.0293 12 15.0293C11.9141 15.0293 11.8496 15.0207 11.8496 15.0078C11.8496 14.9949 11.7787 14.9863 11.6777 14.9863C11.5768 14.9863 11.5059 14.9777 11.5059 14.9648C11.5059 14.952 11.4586 14.9434 11.3984 14.9434C11.3404 14.9434 11.291 14.9326 11.291 14.9219C11.291 14.909 11.2588 14.9004 11.218 14.9004C11.1771 14.9004 11.1363 14.8896 11.1299 14.8789C11.1234 14.866 11.0934 14.8574 11.0654 14.8574C11.0375 14.8574 11.0074 14.8467 11.001 14.8359C10.9945 14.823 10.9688 14.8145 10.9451 14.8145C10.9236 14.8145 10.9043 14.8037 10.9043 14.793C10.9043 14.7801 10.8807 14.7715 10.8527 14.7715C10.8227 14.7715 10.7926 14.7607 10.7861 14.75C10.7797 14.7371 10.7539 14.7285 10.7303 14.7285C10.7088 14.7285 10.6895 14.7178 10.6895 14.707C10.6895 14.6941 10.6744 14.6855 10.6572 14.6855C10.6379 14.6855 10.6035 14.6662 10.5777 14.6426C10.552 14.6189 10.5176 14.5996 10.5025 14.5996C10.4875 14.5996 10.4746 14.5889 10.4746 14.5781C10.4746 14.5652 10.4574 14.5566 10.4359 14.5566C10.4145 14.5566 10.3844 14.5373 10.3672 14.5137C10.35 14.49 10.3242 14.4707 10.3092 14.4707C10.2941 14.4707 10.2512 14.4406 10.2125 14.4062C10.176 14.3697 10.1373 14.3418 10.1266 14.3418C10.1029 14.3418 9.6582 13.8971 9.6582 13.8734C9.6582 13.8627 9.63027 13.824 9.59375 13.7875C9.55938 13.7488 9.5293 13.7059 9.5293 13.6908C9.5293 13.6758 9.50996 13.65 9.48633 13.6328C9.4627 13.6156 9.44336 13.5855 9.44336 13.5641C9.44336 13.5426 9.43477 13.5254 9.42188 13.5254C9.41113 13.5254 9.40039 13.5125 9.40039 13.4975C9.40039 13.4824 9.38105 13.448 9.35742 13.4223C9.33379 13.3965 9.31445 13.3621 9.31445 13.3428C9.31445 13.3256 9.30586 13.3105 9.29297 13.3105C9.28223 13.3105 9.27148 13.2912 9.27148 13.2697C9.27148 13.2461 9.26289 13.2203 9.25 13.2139C9.23926 13.2074 9.22852 13.1773 9.22852 13.1473C9.22852 13.1193 9.21992 13.0957 9.20703 13.0957C9.19629 13.0957 9.18555 13.0764 9.18555 13.0549C9.18555 13.0312 9.17695 13.0055 9.16406 12.999C9.15332 12.9926 9.14258 12.9625 9.14258 12.9346C9.14258 12.9066 9.13398 12.8766 9.12109 12.8701C9.11035 12.8637 9.09961 12.8229 9.09961 12.782C9.09961 12.7412 9.09102 12.709 9.07813 12.709C9.06738 12.709 9.05664 12.666 9.05664 12.6145C9.05664 12.5607 9.04805 12.5113 9.03516 12.5049C9.02441 12.4984 9.01367 12.4146 9.01367 12.3201C9.01367 12.2213 9.00508 12.1504 8.99219 12.1504C8.9793 12.1504 8.9707 12.0859 8.9707 12C8.9707 11.9141 8.9793 11.8496 8.99219 11.8496C9.00508 11.8496 9.01367 11.7787 9.01367 11.6799C9.01367 11.5854 9.02441 11.5016 9.03516 11.4951C9.04805 11.4887 9.05664 11.4393 9.05664 11.3855C9.05664 11.334 9.06738 11.291 9.07813 11.291C9.09102 11.291 9.09961 11.2588 9.09961 11.218C9.09961 11.1771 9.11035 11.1363 9.12109 11.1299C9.13398 11.1234 9.14258 11.0934 9.14258 11.0654C9.14258 11.0375 9.15332 11.0074 9.16406 11.001C9.17695 10.9945 9.18555 10.9687 9.18555 10.9451C9.18555 10.9236 9.19629 10.9043 9.20703 10.9043C9.21992 10.9043 9.22852 10.8807 9.22852 10.8527C9.22852 10.8227 9.23926 10.7926 9.25 10.7861C9.26289 10.7797 9.27148 10.7539 9.27148 10.7303C9.27148 10.7088 9.28223 10.6895 9.29297 10.6895C9.30586 10.6895 9.31445 10.6701 9.31445 10.6465C9.31445 10.6229 9.3252 10.6035 9.33594 10.6035C9.34883 10.6035 9.35742 10.5906 9.35742 10.5756C9.35742 10.5605 9.37676 10.5262 9.40039 10.5004C9.42402 10.4746 9.44336 10.4402 9.44336 10.4209C9.44336 10.4037 9.45195 10.3887 9.46055 10.3887C9.47129 10.3887 9.49277 10.3629 9.50996 10.3307C9.52715 10.2984 9.56582 10.2426 9.6002 10.2082C9.63242 10.1738 9.6582 10.1373 9.6582 10.1266C9.6582 10.1029 10.1029 9.6582 10.1266 9.6582C10.1373 9.6582 10.176 9.62812 10.2125 9.59375C10.2512 9.55723 10.2941 9.5293 10.3092 9.5293C10.3242 9.5293 10.35 9.50996 10.3672 9.48633C10.3844 9.4627 10.4102 9.44336 10.4273 9.44336C10.4424 9.44336 10.4746 9.42402 10.5004 9.40039C10.5262 9.37676 10.5605 9.35742 10.5756 9.35742C10.5906 9.35742 10.6035 9.34668 10.6035 9.33594C10.6035 9.32305 10.6229 9.31445 10.6465 9.31445C10.6701 9.31445 10.6895 9.30371 10.6895 9.29297C10.6895 9.28008 10.7088 9.27148 10.7303 9.27148C10.7539 9.27148 10.7797 9.26074 10.7861 9.25C10.7926 9.23711 10.8227 9.22852 10.8527 9.22852C10.8807 9.22852 10.9043 9.21777 10.9043 9.20703C10.9043 9.19414 10.9236 9.18555 10.9451 9.18555C10.9688 9.18555 10.9945 9.1748 11.001 9.16406C11.0074 9.15117 11.0375 9.14258 11.0654 9.14258C11.0934 9.14258 11.1234 9.13184 11.1299 9.12109C11.1363 9.1082 11.1771 9.09961 11.218 9.09961C11.2588 9.09961 11.291 9.08887 11.291 9.07812C11.291 9.06523 11.334 9.05664 11.3855 9.05664C11.4393 9.05664 11.4887 9.0459 11.4951 9.03516C11.5016 9.02227 11.5854 9.01367 11.6799 9.01367C11.7787 9.01367 11.8496 9.00508 11.8496 8.99219C11.8496 8.9793 11.9141 8.9707 12 8.9707C12.0859 8.9707 12.1504 8.9793 12.1504 8.99219Z" fill="black"/>
</svg>
