<svg width="24" height="24" viewBox="0 0 24 24" fill="none" xmlns="http://www.w3.org/2000/svg">
<path d="M12.4501 9.035C12.4501 13.36 12.4426 15.5275 12.4226 15.7025C12.3401 16.5275 11.9201 17.24 11.2476 17.7C9.77262 18.71 7.75762 18.0325 7.17762 16.3275C7.07012 16.015 7.04262 15.83 7.04262 15.425C7.04262 15.085 7.05012 15.0075 7.10762 14.7925C7.31262 14.02 7.83762 13.37 8.53762 13.0175C8.74512 12.915 9.03762 12.815 9.25512 12.7725C9.60262 12.7075 10.1926 12.74 10.4826 12.84L10.5751 12.8725L10.5801 11.8425C10.5826 11.275 10.5851 10.53 10.5876 10.1875V9.5625L10.3876 9.5425C10.0401 9.5075 9.14762 9.5375 8.83762 9.595C7.63762 9.815 6.63512 10.2975 5.80762 11.055C4.96012 11.825 4.35012 12.8275 4.07512 13.8875C3.65262 15.5275 3.88512 17.1625 4.74762 18.5875C5.18262 19.31 5.99012 20.1075 6.73762 20.555C7.19262 20.8275 7.82512 21.085 8.32262 21.205C8.83512 21.325 9.05512 21.355 9.59762 21.3675C10.7126 21.395 11.5301 21.215 12.4451 20.7375C13.0151 20.44 13.4776 20.0975 13.9526 19.625C14.7701 18.8125 15.3226 17.7875 15.5476 16.6725C15.6901 15.9725 15.6851 16.145 15.6926 12.3925L15.7026 8.925L15.8451 9.02C16.6851 9.59 17.6426 9.9875 18.5876 10.1625C18.9776 10.235 19.7476 10.325 19.9701 10.325H20.1251V8.7275V7.1325L19.8576 7.12C18.5651 7.0575 17.1726 6.2425 16.4051 5.0975C15.9801 4.4625 15.7201 3.685 15.6826 2.9425L15.6676 2.625H14.0576H12.4501V9.035Z" fill="black"/>
</svg>
